# xmcd
#
# Track frame offsets:
#	150
#	18775
#	42212
#
# Disc length: 909 seconds
#
# Revision: 6
# Processed by: cddbd v1.5.2PL0 Copyright (c) Steve Scherf et al.
# Submitted via: audiograbber 1.83.01
#
DISCID=16038b03
DTITLE=Joel, Billy - The river of dreams
DYEAR=1993
DGENRE=Rock
TTITLE0=The river of dreams (Album version)
TTITLE1=The river of dreams (Percapella mix)
TTITLE2=The great wall of China
EXTD=
EXTT0=
EXTT1=
EXTT2=
PLAYORDER=
